<svg width="342" height="243" viewBox="0 0 342 243" fill="none" xmlns="http://www.w3.org/2000/svg">
<path d="M246 55.5C246 48.661 230.855 42.6887 208.335 39.4871C203.933 44.6938 197.352 48 190 48C182.817 48 176.371 44.8446 171.973 39.8443C171.538 46.6305 165.896 52 159 52C151.82 52 146 46.1797 146 39C146 32.387 150.938 26.9273 157.327 26.1066C156.728 26.0362 156.118 26 155.5 26C147.951 26 141.663 31.3961 140.282 38.5413C113.626 41.397 95 47.9155 95 55.5C95 65.7173 128.803 74 170.5 74C212.198 74 246 65.7173 246 55.5Z" fill="#5B5B62"/>
<path d="M166 24C166 11.6516 175.326 1.48138 187.319 0.148132C186.392 0.0502319 185.452 0 184.5 0C170.019 0 158.251 11.6154 158.004 26.0376C158.333 26.0127 158.665 26 159 26C161.743 26 164.287 26.8492 166.384 28.2992C166.132 26.9044 166 25.4675 166 24Z" fill="#5B5B62"/>
<path d="M177.961 150.036C238.588 150.036 287.737 138.613 287.737 124.522C287.737 123.61 287.531 122.708 287.129 121.82C290.299 124.476 292 127.285 292 130.192C292 146.631 237.603 159.957 170.5 159.957C103.397 159.957 49 146.631 49 130.192C49 118.876 74.7756 109.035 112.728 104C85.7046 108.647 68.1842 116.109 68.1842 124.522C68.1842 138.613 117.333 150.036 177.961 150.036Z" fill="#5B5B62"/>
<path d="M181.5 229C266.828 229 336 212.882 336 193C336 191.712 335.71 190.44 335.144 189.187C339.607 192.935 342 196.899 342 201C342 224.196 265.441 243 171 243C76.5593 243 0 224.196 0 201C0 185.033 36.2768 171.147 89.6915 164.042C51.6585 170.6 27 181.129 27 193C27 212.882 96.172 229 181.5 229Z" fill="#5B5B62"/>
</svg>
