<svg width="900" height="258" viewBox="0 0 900 258" fill="none" xmlns="http://www.w3.org/2000/svg">
<path d="M246 62.5C246 55.661 230.855 49.6887 208.335 46.4871C203.933 51.6938 197.352 55 190 55C182.817 55 176.371 51.8446 171.973 46.8443C171.538 53.6305 165.896 59 159 59C151.82 59 146 53.1797 146 46C146 39.387 150.938 33.9273 157.327 33.1066C156.728 33.0362 156.118 33 155.5 33C147.951 33 141.663 38.3961 140.282 45.5413C113.626 48.397 95 54.9155 95 62.5C95 72.7173 128.803 81 170.5 81C212.198 81 246 72.7173 246 62.5Z" fill="#5B5B62"/>
<path d="M166 31C166 18.6516 175.326 8.48138 187.319 7.14813C186.392 7.05023 185.452 7 184.5 7C170.019 7 158.251 18.6154 158.004 33.0376C158.333 33.0127 158.665 33 159 33C161.743 33 164.287 33.8492 166.384 35.2992C166.132 33.9044 166 32.4675 166 31Z" fill="#5B5B62"/>
<path d="M177.961 157.036C238.588 157.036 287.737 145.613 287.737 131.522C287.737 130.61 287.531 129.708 287.129 128.82C290.299 131.476 292 134.285 292 137.192C292 153.631 237.603 166.957 170.5 166.957C103.397 166.957 49 153.631 49 137.192C49 125.876 74.7756 116.035 112.728 111C85.7046 115.647 68.1842 123.109 68.1842 131.522C68.1842 145.613 117.333 157.036 177.961 157.036Z" fill="#5B5B62"/>
<path d="M181.5 236C266.828 236 336 219.882 336 200C336 198.712 335.71 197.44 335.144 196.187C339.607 199.935 342 203.899 342 208C342 231.196 265.441 250 171 250C76.5593 250 0 231.196 0 208C0 192.033 36.2768 178.147 89.6915 171.042C51.6585 177.6 27 188.129 27 200C27 219.882 96.172 236 181.5 236Z" fill="#5B5B62"/>
<path d="M413.56 103V24.9H417.41V74.07L465.15 24.9H469.88L436.99 59.11L471.42 103H466.91L434.35 61.42L417.41 78.8V103H413.56ZM538.185 24.9H541.485L575.035 103H570.965L559.415 76.05H520.255L508.705 103H504.525L538.185 24.9ZM558.205 72.75L539.835 29.74L521.355 72.75H558.205ZM664.409 28.42H635.149V103H631.299V28.42H602.039V24.9H664.409V28.42ZM703.738 24.9L732.448 69.23L761.488 24.9H765.668L734.428 73.08V103H730.578V72.86L699.448 24.9H703.738ZM407.62 192.4C407.62 187.707 408.427 183.05 410.04 178.43C411.727 173.737 414.147 169.557 417.3 165.89C420.453 162.223 424.34 159.253 428.96 156.98C433.58 154.633 438.823 153.46 444.69 153.46C451.657 153.46 457.597 155.037 462.51 158.19C467.497 161.343 471.163 165.45 473.51 170.51L467.46 174.25C466.213 171.683 464.673 169.52 462.84 167.76C461.08 166 459.173 164.57 457.12 163.47C455.067 162.37 452.94 161.6 450.74 161.16C448.54 160.647 446.377 160.39 444.25 160.39C439.557 160.39 435.413 161.343 431.82 163.25C428.227 165.157 425.183 167.65 422.69 170.73C420.27 173.81 418.437 177.293 417.19 181.18C415.943 184.993 415.32 188.88 415.32 192.84C415.32 197.167 416.053 201.31 417.52 205.27C419.06 209.23 421.113 212.75 423.68 215.83C426.32 218.837 429.4 221.257 432.92 223.09C436.513 224.85 440.4 225.73 444.58 225.73C446.78 225.73 449.017 225.473 451.29 224.96C453.637 224.373 455.873 223.493 458 222.32C460.2 221.073 462.217 219.57 464.05 217.81C465.883 215.977 467.423 213.777 468.67 211.21L475.05 214.51C473.803 217.443 472.043 220.047 469.77 222.32C467.497 224.52 464.967 226.39 462.18 227.93C459.393 229.47 456.423 230.643 453.27 231.45C450.19 232.257 447.147 232.66 444.14 232.66C438.787 232.66 433.873 231.487 429.4 229.14C424.927 226.793 421.077 223.75 417.85 220.01C414.623 216.197 412.093 211.907 410.26 207.14C408.5 202.3 407.62 197.387 407.62 192.4ZM547.626 153.9H554.116L586.566 232H578.426L568.306 207.58H533.216L523.206 232H514.956L547.626 153.9ZM566.546 201.53L550.816 162.92L534.866 201.53H566.546ZM634.062 232V154.01H641.762V199.33L684.772 153.9H693.242L661.342 188.22L694.892 232H686.422L656.502 192.73L641.762 208.02V232H634.062ZM793.515 225.18V232H741.045V153.9H792.525V160.72H748.745V188.88H786.915V195.37H748.745V225.18H793.515ZM888.415 168.53C886.215 166.037 883.282 164.02 879.615 162.48C875.949 160.94 871.769 160.17 867.075 160.17C860.182 160.17 855.159 161.49 852.005 164.13C848.852 166.697 847.275 170.217 847.275 174.69C847.275 177.037 847.679 178.98 848.485 180.52C849.365 181.987 850.685 183.27 852.445 184.37C854.205 185.47 856.442 186.423 859.155 187.23C861.942 188.037 865.205 188.843 868.945 189.65C873.125 190.53 876.865 191.52 880.165 192.62C883.539 193.72 886.399 195.113 888.745 196.8C891.092 198.413 892.889 200.393 894.135 202.74C895.382 205.087 896.005 208.02 896.005 211.54C896.005 215.133 895.309 218.25 893.915 220.89C892.522 223.53 890.579 225.73 888.085 227.49C885.592 229.25 882.622 230.57 879.175 231.45C875.729 232.257 871.952 232.66 867.845 232.66C855.745 232.66 845.295 228.883 836.495 221.33L840.345 215.06C841.739 216.527 843.389 217.92 845.295 219.24C847.275 220.56 849.439 221.733 851.785 222.76C854.205 223.713 856.772 224.483 859.485 225.07C862.199 225.583 865.059 225.84 868.065 225.84C874.299 225.84 879.139 224.74 882.585 222.54C886.105 220.267 887.865 216.857 887.865 212.31C887.865 209.89 887.352 207.873 886.325 206.26C885.372 204.573 883.905 203.143 881.925 201.97C879.945 200.723 877.489 199.66 874.555 198.78C871.622 197.9 868.212 197.02 864.325 196.14C860.219 195.187 856.625 194.197 853.545 193.17C850.465 192.143 847.862 190.86 845.735 189.32C843.609 187.78 841.995 185.947 840.895 183.82C839.869 181.62 839.355 178.943 839.355 175.79C839.355 172.197 840.015 169.007 841.335 166.22C842.729 163.36 844.672 161.013 847.165 159.18C849.659 157.273 852.592 155.843 855.965 154.89C859.339 153.863 863.079 153.35 867.185 153.35C872.392 153.35 877.012 154.157 881.045 155.77C885.152 157.31 888.855 159.51 892.155 162.37L888.415 168.53Z" fill="#5B5B62"/>
</svg>
